<svg xmlns="http://www.w3.org/2000/svg" xmlns:xlink="http://www.w3.org/1999/xlink" viewBox="0,0,255.99838,255.99838" width="24px" height="24px" fill-rule="nonzero"><g fill="#626b70" fill-rule="nonzero" stroke="none" stroke-width="1" stroke-linecap="butt" stroke-linejoin="miter" stroke-miterlimit="10" stroke-dasharray="" stroke-dashoffset="0" font-family="none" font-weight="none" font-size="none" text-anchor="none" style="mix-blend-mode: normal"><g transform="scale(10.66667,10.66667)"><path d="M12,2c-5.48,0 -10,3.99394 -10,9c0,5.00606 4.52,9 10,9c0.36745,0 0.66013,-0.06208 1,-0.09766v3.24023l1.54492,-1.00391c2.11297,-1.37343 6.88546,-4.94425 7.44922,-10.13086l0.00586,-0.05273v-0.95508c0,-5.00606 -4.52,-9 -10,-9zM12,4c4.52,0 8,3.20606 8,7v0.80859c-0.35659,3.19432 -2.94336,5.68889 -5,7.32227v-1.51172l-1.16406,0.19531c-0.58223,0.09704 -1.23118,0.18555 -1.83594,0.18555c-4.52,0 -8,-3.20606 -8,-7c0,-3.79394 3.48,-7 8,-7z"></path></g></g></svg>